<?xml version="1.0" encoding="UTF-8"?> <svg xmlns="http://www.w3.org/2000/svg" width="24" height="24" viewBox="0 0 24 24"><path fill="#CC9626" fill-rule="evenodd" d="M1.286 23.294c-.71 0-1.286-.576-1.286-1.286V1.286C0 .576.575 0 1.286 0h20.723c.71 0 1.285.575 1.285 1.286v20.722c0 .71-.576 1.286-1.285 1.286h-5.936v-9.02H19.1l.454-3.516h-3.481V8.513c0-1.017.282-1.711 1.742-1.711h1.861V3.656a24.886 24.886 0 0 0-2.712-.139c-2.684 0-4.522 1.639-4.522 4.647v2.593H9.407v3.515h3.035v9.021H1.286z"></path></svg> 