<?xml version="1.0" encoding="UTF-8"?> <svg xmlns="http://www.w3.org/2000/svg" width="24" height="24" viewBox="0 0 24 24"><path fill="#CC9626" fill-rule="evenodd" d="M11.706 0c3.163 0 3.56.013 4.802.07 1.24.057 2.086.254 2.827.541a5.709 5.709 0 0 1 2.063 1.344 5.71 5.71 0 0 1 1.344 2.063c.287.74.484 1.587.54 2.827.058 1.242.07 1.639.07 4.802 0 3.163-.012 3.56-.07 4.802-.056 1.24-.253 2.086-.54 2.827a5.71 5.71 0 0 1-1.344 2.063 5.71 5.71 0 0 1-2.063 1.344c-.74.288-1.587.484-2.827.541-1.242.057-1.639.07-4.802.07-3.163 0-3.56-.013-4.802-.07-1.24-.057-2.087-.253-2.827-.541a5.71 5.71 0 0 1-2.063-1.344A5.709 5.709 0 0 1 .67 19.276C.382 18.536.185 17.69.13 16.45c-.057-1.242-.07-1.639-.07-4.802 0-3.163.013-3.56.07-4.802.056-1.24.253-2.086.541-2.827a5.709 5.709 0 0 1 1.344-2.063A5.709 5.709 0 0 1 4.077.61c.74-.287 1.587-.484 2.827-.54C8.146.012 8.543 0 11.706 0zm0 2.099c-3.11 0-3.478.011-4.707.067-1.135.052-1.752.242-2.162.402a3.608 3.608 0 0 0-1.34.87c-.407.408-.66.796-.87 1.34-.16.41-.35 1.027-.402 2.163-.056 1.228-.068 1.596-.068 4.706 0 3.11.012 3.478.068 4.706.052 1.136.242 1.753.401 2.163.212.544.464.932.872 1.34.407.407.795.66 1.339.87.41.16 1.027.35 2.162.402 1.228.056 1.597.068 4.707.068s3.478-.012 4.706-.068c1.136-.052 1.753-.242 2.163-.401a3.608 3.608 0 0 0 1.34-.872c.407-.407.66-.795.87-1.339.16-.41.35-1.027.401-2.163.056-1.228.068-1.596.068-4.706 0-3.11-.012-3.478-.068-4.706-.051-1.136-.241-1.753-.4-2.163a3.608 3.608 0 0 0-.872-1.34 3.608 3.608 0 0 0-1.339-.87c-.41-.16-1.027-.35-2.163-.402-1.228-.056-1.596-.067-4.706-.067zm0 3.567a5.98 5.98 0 1 1 0 11.962 5.98 5.98 0 0 1 0-11.962zm0 9.863a3.882 3.882 0 1 0 0-7.764 3.882 3.882 0 0 0 0 7.764zm7.615-10.1a1.398 1.398 0 1 1-2.796 0 1.398 1.398 0 0 1 2.796 0z" opacity=".8"></path></svg> 