<?xml version="1.0" encoding="UTF-8"?> <svg xmlns="http://www.w3.org/2000/svg" width="24" height="21" viewBox="0 0 24 21"><path fill="#CC9626" fill-rule="evenodd" d="M24 2.752a9.207 9.207 0 0 1-2.744.785 4.967 4.967 0 0 0 2.101-2.76 9.314 9.314 0 0 1-3.036 1.21A4.676 4.676 0 0 0 16.833.411c-2.638 0-4.777 2.234-4.777 4.99 0 .39.04.77.123 1.135-3.972-.208-7.493-2.192-9.852-5.214a5.152 5.152 0 0 0-.646 2.51c0 1.73.843 3.258 2.126 4.153a4.63 4.63 0 0 1-2.166-.622v.061c0 2.419 1.648 4.436 3.835 4.893-.4.117-.823.175-1.259.175-.308 0-.608-.03-.9-.088.609 1.981 2.373 3.425 4.464 3.463a9.333 9.333 0 0 1-7.075 2.069 13.137 13.137 0 0 0 7.326 2.24c8.791 0 13.597-7.602 13.597-14.196 0-.217-.004-.434-.012-.647A9.916 9.916 0 0 0 24 2.752"></path></svg> 