<svg id="Layer_1" data-name="Layer 1" xmlns="http://www.w3.org/2000/svg" viewBox="0 0 488.2 487.37"><defs><style>.cls-1{fill:#010101;}</style></defs><path class="cls-1" d="M146.12,341.47q0-50.64,0-101.3a81.49,81.49,0,0,0-1.66-17.08,70.58,70.58,0,0,1-1.05-20,101.62,101.62,0,0,1,10.36-37.6,113.36,113.36,0,0,1,25.09-33.14c15-13.87,32.51-23.36,52-29.24a138.78,138.78,0,0,1,35.37-5.81A148.51,148.51,0,0,1,295,98.78c23.47,3.73,44.86,12.45,63.66,27.18a114.08,114.08,0,0,1,31.86,38.18,101.57,101.57,0,0,1,11,39.77,98,98,0,0,1-1.72,26.17,102.86,102.86,0,0,1-22.63,46.45c-3.4,4-7.27,7.67-10.83,11.58a5.34,5.34,0,0,0-1.31,3c-.71,11.07-1.5,22.11-3.26,33.09a257.72,257.72,0,0,1-8,35,217.69,217.69,0,0,1-19.55,45.15A182.41,182.41,0,0,1,301.36,446a167.42,167.42,0,0,1-46,30.69,181.81,181.81,0,0,1-34.3,11.74c-9.07,2.09-18.32,3.46-27.52,4.95a197.37,197.37,0,0,1-32.13,2.32c-1.34,0-2.7.36-4,.28a3.09,3.09,0,0,1-2.05-1c-.67-.84-1.07-.77-1.89-.24-1.07.68-1.09,3-3.13,2.13a7.89,7.89,0,0,1-4.74-5c-.31-1,.14-2.3.27-3.46.08-.69.32-1.38.33-2.07,0-3.35-.14-6.71,0-10.07a3.37,3.37,0,0,0-2.34-3.66,227.39,227.39,0,0,1-30.56-16.62,221.42,221.42,0,0,1-80.15-90.58,208.11,208.11,0,0,1-14.77-39.38c-2.61-10.36-4.91-20.82-6.74-31.34a189.57,189.57,0,0,1-2.33-23.07c-.46-9.47-.69-19-.35-28.43.3-8.29,1.39-16.56,2.36-24.82a207.32,207.32,0,0,1,7.19-33.59,238.48,238.48,0,0,1,13.29-35A245.14,245.14,0,0,1,114,52.54a223.49,223.49,0,0,1,41.7-23.12C164.28,25.86,173.1,22.7,182,20a231.58,231.58,0,0,1,24.33-6c7.69-1.48,15.53-2.19,23.3-3.18,2-.26,4.11-.41,6.16-.48,7.85-.27,15.71-.69,23.56-.64,5.38,0,10.77.7,16.15,1.17,4.61.42,9.24.84,13.82,1.49A118,118,0,0,1,302,14.63c10.16,2.58,20.38,5,30.33,8.22A219.76,219.76,0,0,1,376.17,43a246.54,246.54,0,0,1,93.06,97.88,223.34,223.34,0,0,1,18.39,46.26c2.72,10.19,4.74,20.58,6.55,31,2.74,15.69,3.22,31.57,2.47,47.46A247.73,247.73,0,0,1,491.56,305a244.26,244.26,0,0,1-18.21,54.08A243.64,243.64,0,0,1,365.86,470.75a214.09,214.09,0,0,1-40.59,16.43c-8.33,2.37-16.77,4.46-25.27,6.14-7.67,1.53-15.47,2.39-23.22,3.45-4.6.62-9.61-3.48-10-8.5-.4-5.57,2.47-9.7,8.09-10.68,5.83-1,11.74-1.63,17.58-2.6a209.93,209.93,0,0,0,31.25-7.88,220.94,220.94,0,0,0,30.68-12.75A223.56,223.56,0,0,0,471.44,305a229.59,229.59,0,0,0,5.71-57.77,210.59,210.59,0,0,0-3.79-35.34A225.53,225.53,0,0,0,348.82,50.8a198.76,198.76,0,0,0-36.35-13.54,298.57,298.57,0,0,0-31-6.28,189.07,189.07,0,0,0-46.7-1c-9.09,1-18.2,2-27.16,3.73a206.59,206.59,0,0,0-42.36,13.2A225.76,225.76,0,0,0,44.45,170.39a189.17,189.17,0,0,0-10.29,33.19c-1.85,9.34-3.78,18.72-4.65,28.18a303.78,303.78,0,0,0-.91,30.93A213.89,213.89,0,0,0,31.87,296a220.39,220.39,0,0,0,24.19,70.41,202,202,0,0,0,29.08,40.19,206.39,206.39,0,0,0,53.55,41.27c1.87,1,3.78,2,5.66,2.95,1.14.6,1.72.23,1.75-1,0-.71,0-1.42,0-2.13ZM273.4,304.28c1.16-.07,3.34-.28,5.53-.31a105,105,0,0,0,25.38-3.78,111.81,111.81,0,0,0,39-18.34c21.37-15.93,35.27-36.38,38.25-63.48a77.5,77.5,0,0,0-4-34.07C372,168.16,362.13,155,349.22,143.9a6.3,6.3,0,0,0-6.21-1.27c-.44.11-.85.31-1.28.42-17.79,4.51-31.23,14.92-40.84,30.36-5.93,9.52-9.44,20-11.44,31-1.74,9.58-2.69,19-.22,28.73,1.12,4.4.82,9.44,0,14-1.44,8.34-6,15.28-11.69,21.46-1.07,1.16-1.84,1.17-2.76-.07-2.12-2.84-4.47-5.53-6.36-8.51-3.31-5.24-5.56-10.9-5.76-17.21a48.67,48.67,0,0,1,3.83-21.71,5.43,5.43,0,0,0,.33-2.45,93.32,93.32,0,0,0-7.1-31.52c-8.76-20.81-23.87-34.92-45.31-42-4.37-1.45-9-2.05-13.5-3.18-1.38-.35-2.51-.37-3.56.64-4,3.89-8.39,7.51-12.11,11.67-13.12,14.69-20.86,31.73-22.09,51.6a79.1,79.1,0,0,0,4.72,32.47c6.51,17.74,17.85,31.87,33,43C222.09,296.93,246.16,304,273.4,304.28ZM166.77,274l-.5.17V474.14c0,.52,0,1,0,1.55,0,1.44.61,2,2,1.69,5.25-1.27,10.6-2.22,15.73-3.86a71.29,71.29,0,0,0,37.25-27.28c7.34-10.31,12.1-21.83,15.45-34a190.65,190.65,0,0,0,6.17-41.8,283.7,283.7,0,0,0-1.4-41.93,51.31,51.31,0,0,0-1-6.69,3.28,3.28,0,0,0-1.94-2c-4.29-1.38-8.72-2.36-12.95-3.87-23-8.22-42.63-21.18-57.61-40.73A11,11,0,0,0,166.77,274Zm62.84,192.1.27.43a8.94,8.94,0,0,0,1.73-.3,162.35,162.35,0,0,0,39-19.84c22-15.32,38.44-35.34,50.57-59.07a193.57,193.57,0,0,0,14.94-38.89c1.83-7,3.51-14,4.86-21.06,1.29-6.77,2.06-13.63,3-20.45.18-1.24-.45-1.51-1.5-1-.41.18-.79.43-1.19.64A136.17,136.17,0,0,1,307,319.87a115.61,115.61,0,0,1-22.29,3.52c-7.34.29-14.69.29-22,.28-2.31,0-2.67.1-2.48,2.37.41,4.88,1.17,9.76,1.21,14.64.09,12,.2,24-.38,36A190.09,190.09,0,0,1,258,402.14a199.24,199.24,0,0,1-6,23.37,111.24,111.24,0,0,1-20.65,38.42C230.74,464.64,230.19,465.4,229.61,466.14ZM276.9,176a99.37,99.37,0,0,1,18.89-28.22A92.2,92.2,0,0,1,324,128.31a19.91,19.91,0,0,0-2.29-1.24c-4.83-1.76-9.63-3.65-14.55-5.17a110.29,110.29,0,0,0-27.35-4.68,127.26,127.26,0,0,0-32.12,2.2A116.55,116.55,0,0,0,225,126.36c-.44.18-.76.63-1.37,1.17C247.73,137,265.59,152.77,276.9,176Z" transform="translate(-8.76 -9.64)"/><path class="cls-1" d="M326.8,210.42a14,14,0,0,1,14.37,14.45,14.21,14.21,0,0,1-14.4,14.29,14.37,14.37,0,1,1,0-28.74Z" transform="translate(-8.76 -9.64)"/><path class="cls-1" d="M209.64,224.79A14,14,0,0,1,224,210.42a14.37,14.37,0,1,1-14.4,14.37Z" transform="translate(-8.76 -9.64)"/></svg>